<svg id="Capa_1" enable-background="new 0 0 512.001 512.001" height="512" viewBox="0 0 512.001 512.001" width="512" xmlns="http://www.w3.org/2000/svg"><g><path d="m91.001 361h80.728l-64.146 129.291c-3.706 7.412-.703 16.421 6.709 20.127 7.487 3.719 16.439.646 20.127-6.709l61.582-124.164 61.582 124.164c3.691 7.361 12.647 10.424 20.127 6.709 7.412-3.706 10.415-12.715 6.709-20.127l-64.146-129.291h80.728c24.814 0 45-20.186 45-45v-120c0-24.814-20.186-45-45-45h-210c-24.814 0-45 20.186-45 45v120c0 24.814 20.185 45 45 45zm30-150h60c8.291 0 15 6.709 15 15s-6.709 15-15 15h-60c-8.291 0-15-6.709-15-15s6.709-15 15-15z"/><path d="m121.001 121c33.137 0 60-26.863 60-60s-26.863-61-60-61-60 27.863-60 61 26.863 60 60 60zm0-75c8.284 0 15 6.716 15 15s-6.716 15-15 15-15-6.716-15-15 6.716-15 15-15z"/><path d="m271.001 121c33.137 0 60-26.863 60-60s-26.863-61-60-61-60 27.863-60 61 26.863 60 60 60zm0-75c8.284 0 15 6.716 15 15s-6.716 15-15 15-15-6.716-15-15 6.716-15 15-15z"/><path d="m460.229 327.821c3.647-2.842 5.771-7.207 5.771-11.821v-120c0-4.614-2.124-8.979-5.771-11.821-3.647-2.856-8.408-3.911-12.861-2.725l-71.367 17.842v113.408l71.367 17.842c4.257 1.089 9.071.232 12.861-2.725z"/></g></svg>